<svg width="106" height="106" viewBox="0 0 106 106" fill="none" xmlns="http://www.w3.org/2000/svg">
<circle cx="7.3349" cy="97.8596" r="7.27457" transform="rotate(-89.5228 7.3349 97.8596)" fill="#5C5C5C"/>
<circle cx="8.08905" cy="7.33492" r="7.27457" transform="rotate(-89.5228 8.08905 7.33492)" fill="#5C5C5C"/>
<circle cx="7.52338" cy="75.2285" r="7.27457" transform="rotate(-89.5228 7.52338 75.2285)" fill="#5C5C5C"/>
<circle cx="7.71198" cy="52.5973" r="7.27457" transform="rotate(-89.5228 7.71198 52.5973)" fill="#5C5C5C"/>
<circle cx="7.90045" cy="29.9661" r="7.27457" transform="rotate(-89.5228 7.90045 29.9661)" fill="#5C5C5C"/>
<circle cx="29.9661" cy="98.0482" r="7.27457" transform="rotate(-89.5228 29.9661 98.0482)" fill="#5C5C5C"/>
<circle cx="30.1547" cy="75.417" r="7.27457" transform="rotate(-89.5228 30.1547 75.417)" fill="#5C5C5C"/>
<circle cx="30.3432" cy="52.7858" r="7.27457" transform="rotate(-89.5228 30.3432 52.7858)" fill="#5C5C5C"/>
<circle cx="52.5974" cy="98.2367" r="7.27457" transform="rotate(-89.5228 52.5974 98.2367)" fill="#5C5C5C"/>
<circle cx="52.786" cy="75.6055" r="7.27457" transform="rotate(-89.5228 52.786 75.6055)" fill="#5C5C5C"/>
<circle cx="75.2286" cy="98.4252" r="7.27457" transform="rotate(-89.5228 75.2286 98.4252)" fill="#5C5C5C"/>
<circle cx="75.4171" cy="75.794" r="7.27457" transform="rotate(-89.5228 75.4171 75.794)" fill="#5C5C5C"/>
<circle cx="97.8598" cy="98.6137" r="7.27457" transform="rotate(-89.5228 97.8598 98.6137)" fill="#5C5C5C"/>
<circle cx="52.9743" cy="52.9743" r="7.27457" transform="rotate(-89.5228 52.9743 52.9743)" fill="#5C5C5C"/>
<circle cx="30.5317" cy="30.1546" r="7.27457" transform="rotate(-89.5228 30.5317 30.1546)" fill="#5C5C5C"/>
</svg>
