<svg width="20" height="20" viewBox="0 0 20 20" fill="none" xmlns="http://www.w3.org/2000/svg">
<path d="M2.22222 0C0.994444 0 0 0.994444 0 2.22222V17.7778C0 19.0056 0.994444 20 2.22222 20H17.7778C19.0056 20 20 19.0056 20 17.7778V2.22222C20 0.994444 19.0056 0 17.7778 0H2.22222ZM2.22222 2.22222H17.7778V17.7778H2.22222V2.22222ZM5.31033 3.6849C4.35811 3.6849 3.78689 4.25731 3.78689 5.01953C3.78689 5.78175 4.35818 6.352 5.21484 6.352C6.16707 6.352 6.73828 5.78175 6.73828 5.01953C6.73828 4.25731 6.167 3.6849 5.31033 3.6849ZM3.86285 7.77778V15.5556H6.66667V7.77778H3.86285ZM8.98003 7.77778V15.5556H11.7839V11.3043C11.7839 10.0387 12.6868 9.85677 12.9579 9.85677C13.229 9.85677 13.954 10.1287 13.954 11.3043V15.5556H16.6667V11.3043C16.6667 8.86314 15.5819 7.77778 14.2253 7.77778C12.8686 7.77778 12.145 8.22951 11.7839 8.86285V7.77778H8.98003Z" fill="#232323"/>
</svg>
