<svg width="128" height="128" viewBox="0 0 128 128" fill="none" xmlns="http://www.w3.org/2000/svg">
<path d="M54 2.6667C50.4 4.53337 46.1333 5.33337 40.4 5.33337H32L32.8 8.93336C33.0667 11.0667 34.5333 18.4 35.8667 25.4667L38.1333 38.1334L30.4 46.6667C9.60001 69.7334 4.66667 98.6667 19.0667 114.267C21.7333 117.333 22 117.333 64 117.333C106 117.333 106.267 117.333 108.933 114.4C123.333 98.6667 118.4 69.7334 97.6 46.6667L89.8667 38.1334L92.1333 25.4667C93.4667 18.4 94.9333 11.0667 95.2 8.93336C95.8667 5.33337 95.8667 5.33337 88.1333 5.33337C83.2 5.33337 78.1333 4.40003 74.5333 2.6667C67.0667 -0.666634 60.5333 -0.666634 54 2.6667ZM71.7333 13.3334C74.1333 14.8 77.6 16 79.4667 16C82.8 16 82.8 16.2667 82 21.6C80.2667 32.8 81.6 32 64 32C46.4 32 47.7333 32.8 46 21.6C45.2 16.2667 45.2 16 48.5333 16C50.4 16 53.8667 14.8 56.2667 13.3334C58.6667 11.8667 62.1333 10.6667 64 10.6667C65.8667 10.6667 69.3333 11.8667 71.7333 13.3334ZM87.4667 51.4667C102.933 67.4667 109.867 87.2 104.8 100.667L102.4 106.667H84.5333C67.6 106.667 66.6667 106.533 66.6667 104C66.6667 102.533 67.6 101.333 68.6667 101.333C72.9333 101.333 77.3333 95.0667 77.3333 89.3334C77.3333 82 76 79.7334 68 74.6667C61.8667 70.8 61.2 69.8667 61.6 66.1334C61.8667 63.0667 62.6667 62 64.6667 62C66.4 62 67.4667 63.0667 67.7333 64.9334C68.1333 67.4667 69.0667 68 72.8 68C76.8 68 77.3333 67.6 77.3333 64.5334C77.3333 62.2667 75.7333 59.4667 72.6667 56.5334C70.1333 54.1334 68 50.9334 68 49.4667C68 47.6 67.2 46.6667 65.3333 46.6667C63.3333 46.6667 62.6667 47.6 62.6667 49.8667C62.6667 52 61.7333 53.4667 60 54C53.0667 56.1334 49.6 68 54 74.2667C55.0667 75.7334 58.6667 78.6667 62 80.5334C67.2 83.6 68 84.6667 68 88.5334C68 91.4667 67.2 93.3334 65.8667 93.8667C63.0667 94.9334 60 92.4 60 89.2C60 87.2 59.0667 86.6667 55.3333 86.6667C51.3333 86.6667 50.6667 87.0667 50.6667 89.8667C50.6667 93.6 56.6667 101.333 59.4667 101.333C60.5333 101.333 61.3333 102.533 61.3333 104C61.3333 106.533 60.4 106.667 43.4667 106.667H25.6L23.2 100.667C18.1333 87.2 25.0667 67.4667 40.5333 51.4667L48.9333 42.6667H64H79.0667L87.4667 51.4667Z" fill="url(#paint0_linear_1373_132)"/>
<defs>
<linearGradient id="paint0_linear_1373_132" x1="10.8339" y1="58.75" x2="117.166" y2="58.75" gradientUnits="userSpaceOnUse">
<stop stop-color="#FF9E00"/>
<stop offset="1" stop-color="#CC7E00"/>
</linearGradient>
</defs>
</svg>
