<svg width="35" height="35" viewBox="0 0 35 35" fill="none" xmlns="http://www.w3.org/2000/svg">
<path d="M11.6667 4.375C7.64604 4.375 4.375 7.64604 4.375 11.6667V23.3333C4.375 27.354 7.64604 30.625 11.6667 30.625H23.3333C27.354 30.625 30.625 27.354 30.625 23.3333V11.6667C30.625 7.64604 27.354 4.375 23.3333 4.375H11.6667ZM11.6667 7.29167H23.3333C25.7454 7.29167 27.7083 9.25458 27.7083 11.6667V23.3333C27.7083 25.7454 25.7454 27.7083 23.3333 27.7083H11.6667C9.25458 27.7083 7.29167 25.7454 7.29167 23.3333V11.6667C7.29167 9.25458 9.25458 7.29167 11.6667 7.29167ZM24.7917 8.75C24.4049 8.75 24.034 8.90365 23.7605 9.17714C23.487 9.45063 23.3333 9.82156 23.3333 10.2083C23.3333 10.5951 23.487 10.966 23.7605 11.2395C24.034 11.513 24.4049 11.6667 24.7917 11.6667C25.1784 11.6667 25.5494 11.513 25.8229 11.2395C26.0964 10.966 26.25 10.5951 26.25 10.2083C26.25 9.82156 26.0964 9.45063 25.8229 9.17714C25.5494 8.90365 25.1784 8.75 24.7917 8.75ZM17.5 10.2083C13.4794 10.2083 10.2083 13.4794 10.2083 17.5C10.2083 21.5206 13.4794 24.7917 17.5 24.7917C21.5206 24.7917 24.7917 21.5206 24.7917 17.5C24.7917 13.4794 21.5206 10.2083 17.5 10.2083ZM17.5 13.125C19.9121 13.125 21.875 15.0879 21.875 17.5C21.875 19.9121 19.9121 21.875 17.5 21.875C15.0879 21.875 13.125 19.9121 13.125 17.5C13.125 15.0879 15.0879 13.125 17.5 13.125Z" fill="url(#paint0_linear_1384_96)"/>
<defs>
<linearGradient id="paint0_linear_1384_96" x1="4.375" y1="17.5" x2="30.625" y2="17.5" gradientUnits="userSpaceOnUse">
<stop stop-color="#FF9E00"/>
<stop offset="1" stop-color="#CC7E00"/>
</linearGradient>
</defs>
</svg>
