<svg width="173" height="25" viewBox="0 0 173 25" fill="none" xmlns="http://www.w3.org/2000/svg">
<path d="M12.5 0L15.3064 8.63729H24.3882L17.0409 13.9754L19.8473 22.6127L12.5 17.2746L5.15268 22.6127L7.95911 13.9754L0.611794 8.63729H9.69357L12.5 0Z" fill="#E8BF7D"/>
<path d="M49.5 0L52.3064 8.63729H61.3882L54.0409 13.9754L56.8473 22.6127L49.5 17.2746L42.1527 22.6127L44.9591 13.9754L37.6118 8.63729H46.6936L49.5 0Z" fill="#E8BF7D"/>
<path d="M86.5 0L89.3064 8.63729H98.3882L91.0409 13.9754L93.8473 22.6127L86.5 17.2746L79.1527 22.6127L81.9591 13.9754L74.6118 8.63729H83.6936L86.5 0Z" fill="#E8BF7D"/>
<path d="M123.5 0L126.306 8.63729H135.388L128.041 13.9754L130.847 22.6127L123.5 17.2746L116.153 22.6127L118.959 13.9754L111.612 8.63729H120.694L123.5 0Z" fill="#E8BF7D"/>
<path d="M160.5 0L163.306 8.63729H172.388L165.041 13.9754L167.847 22.6127L160.5 17.2746L153.153 22.6127L155.959 13.9754L148.612 8.63729H157.694L160.5 0Z" fill="#E8BF7D"/>
</svg>
