<svg width="128" height="128" viewBox="0 0 128 128" fill="none" xmlns="http://www.w3.org/2000/svg">
<path d="M14 19.3333L10.6667 22.5333V64V105.467L14 108.667L17.2 112H64H110.8L114 108.667L117.333 105.467V64V22.5333L114 19.3333L110.8 16H64H17.2L14 19.3333ZM106.667 64V101.333H64H21.3334V64V26.6667H64H106.667V64Z" fill="url(#paint0_linear_1373_124)"/>
<path d="M32 42.6667V48H50.6667H69.3333V42.6667V37.3333H50.6667H32V42.6667Z" fill="url(#paint1_linear_1373_124)"/>
<path d="M80 42.6667V48H88H96V42.6667V37.3333H88H80V42.6667Z" fill="url(#paint2_linear_1373_124)"/>
<path d="M32 64V69.3334H50.6667H69.3333V64V58.6667H50.6667H32V64Z" fill="url(#paint3_linear_1373_124)"/>
<path d="M80 64V69.3334H88H96V64V58.6667H88H80V64Z" fill="url(#paint4_linear_1373_124)"/>
<path d="M69.3334 85.3333V90.6666H82.6667H96V85.3333V80H82.6667H69.3334V85.3333Z" fill="url(#paint5_linear_1373_124)"/>
<defs>
<linearGradient id="paint0_linear_1373_124" x1="10.6667" y1="64" x2="117.333" y2="64" gradientUnits="userSpaceOnUse">
<stop stop-color="#FF9E00"/>
<stop offset="1" stop-color="#CC7E00"/>
</linearGradient>
<linearGradient id="paint1_linear_1373_124" x1="32" y1="42.6667" x2="69.3333" y2="42.6667" gradientUnits="userSpaceOnUse">
<stop stop-color="#FF9E00"/>
<stop offset="1" stop-color="#CC7E00"/>
</linearGradient>
<linearGradient id="paint2_linear_1373_124" x1="80" y1="42.6667" x2="96" y2="42.6667" gradientUnits="userSpaceOnUse">
<stop stop-color="#FF9E00"/>
<stop offset="1" stop-color="#CC7E00"/>
</linearGradient>
<linearGradient id="paint3_linear_1373_124" x1="32" y1="64" x2="69.3333" y2="64" gradientUnits="userSpaceOnUse">
<stop stop-color="#FF9E00"/>
<stop offset="1" stop-color="#CC7E00"/>
</linearGradient>
<linearGradient id="paint4_linear_1373_124" x1="80" y1="64" x2="96" y2="64" gradientUnits="userSpaceOnUse">
<stop stop-color="#FF9E00"/>
<stop offset="1" stop-color="#CC7E00"/>
</linearGradient>
<linearGradient id="paint5_linear_1373_124" x1="69.3334" y1="85.3333" x2="96" y2="85.3333" gradientUnits="userSpaceOnUse">
<stop stop-color="#FF9E00"/>
<stop offset="1" stop-color="#CC7E00"/>
</linearGradient>
</defs>
</svg>
