<svg width="35" height="35" viewBox="0 0 35 35" fill="none" xmlns="http://www.w3.org/2000/svg">
<path d="M7.29167 4.375C5.68313 4.375 4.375 5.68313 4.375 7.29167V27.7083C4.375 29.3169 5.68313 30.625 7.29167 30.625H16.9474H21.0205H27.7083C29.3169 30.625 30.625 29.3169 30.625 27.7083V7.29167C30.625 5.68313 29.3169 4.375 27.7083 4.375H7.29167ZM7.29167 7.29167H27.7083L27.7112 27.7083H21.0205V21.9263H24.4698L24.9825 17.9529H21.0433V15.4207C21.0433 14.2716 21.3636 13.4953 23.0115 13.4953H25.0936V9.94914C24.08 9.8456 23.0624 9.79526 22.0431 9.79818C19.0185 9.79818 16.9474 11.6442 16.9474 15.0334V17.9586H13.5295V21.932H16.9474V27.7083H7.29167V7.29167Z" fill="url(#paint0_linear_1384_92)"/>
<defs>
<linearGradient id="paint0_linear_1384_92" x1="4.375" y1="17.5" x2="30.625" y2="17.5" gradientUnits="userSpaceOnUse">
<stop stop-color="#FF9E00"/>
<stop offset="1" stop-color="#CC7E00"/>
</linearGradient>
</defs>
</svg>
