<svg width="128" height="128" viewBox="0 0 128 128" fill="none" xmlns="http://www.w3.org/2000/svg">
<path d="M29.4667 23.8666C28.1333 25.2 24.5333 33.7333 21.4667 42.8L16 59.3333V81.4666C16 96.8 16.5333 104 17.6 105.067C19.7333 107.2 28.2667 107.2 30.4 105.067C31.3333 104.133 32 101.733 32 99.7333V96H64H96V99.7333C96 101.733 96.6667 104.133 97.6 105.067C99.7333 107.2 108.267 107.2 110.4 105.067C111.467 104 112 96.8 112 81.4666V59.3333L106.533 42.6666C103.333 33.0666 100 25.0666 98.4 23.6C96 21.6 92.2667 21.3333 63.8667 21.3333C34.5333 21.3333 31.8667 21.4666 29.4667 23.8666ZM94.4 40L97.2 48H64H30.8L33.6 40L36.2667 32H64H91.7333L94.4 40ZM101.333 72V85.3333H64H26.6667V72V58.6666H64H101.333V72Z" fill="url(#paint0_linear_1373_119)"/>
<path d="M34.6667 66.6667C33.2 68.1333 32 70.5333 32 72C32 75.4667 36.5333 80 40 80C43.4667 80 48 75.4667 48 72C48 70.5333 46.8 68.1333 45.3333 66.6667C43.8667 65.2 41.4667 64 40 64C38.5333 64 36.1333 65.2 34.6667 66.6667Z" fill="url(#paint1_linear_1373_119)"/>
<path d="M82.6667 66.6667C81.2 68.1333 80 70.5333 80 72C80 73.4667 81.2 75.8667 82.6667 77.3333C84.1333 78.8 86.5333 80 88 80C89.4667 80 91.8667 78.8 93.3333 77.3333C94.8 75.8667 96 73.4667 96 72C96 70.5333 94.8 68.1333 93.3333 66.6667C91.8667 65.2 89.4667 64 88 64C86.5333 64 84.1333 65.2 82.6667 66.6667Z" fill="url(#paint2_linear_1373_119)"/>
<defs>
<linearGradient id="paint0_linear_1373_119" x1="16" y1="64" x2="112" y2="64" gradientUnits="userSpaceOnUse">
<stop stop-color="#FF9E00"/>
<stop offset="1" stop-color="#CC7E00"/>
</linearGradient>
<linearGradient id="paint1_linear_1373_119" x1="32" y1="72" x2="48" y2="72" gradientUnits="userSpaceOnUse">
<stop stop-color="#FF9E00"/>
<stop offset="1" stop-color="#CC7E00"/>
</linearGradient>
<linearGradient id="paint2_linear_1373_119" x1="80" y1="72" x2="96" y2="72" gradientUnits="userSpaceOnUse">
<stop stop-color="#FF9E00"/>
<stop offset="1" stop-color="#CC7E00"/>
</linearGradient>
</defs>
</svg>
